<svg xmlns="http://www.w3.org/2000/svg" width="312.614" height="102.142" viewBox="0 0 312.614 102.142">
  <g id="Group_2018" data-name="Group 2018" transform="translate(-716.085 -245.516)">
    <path id="Path_1" data-name="Path 1" d="M119.442,15.183h7.585V55.467A15.658,15.658,0,0,0,130.5,65.925a12.386,12.386,0,0,0,9.943,4.328,12.613,12.613,0,0,0,10.072-4.328,15.671,15.671,0,0,0,3.513-10.543,14.563,14.563,0,0,0-3.815-10.371,13.1,13.1,0,0,0-10.027-4.072A17.145,17.145,0,0,0,129.556,44.8V36.7a22.684,22.684,0,0,1,11.4-2.873A19.5,19.5,0,0,1,155.783,40.3a21.469,21.469,0,0,1,5.915,15.17q0,9.385-5.828,15.558a19.982,19.982,0,0,1-15.256,6.3,20.848,20.848,0,0,1-13.372-4.65A19.651,19.651,0,0,1,120,60.654a47.2,47.2,0,0,1-.557-8.486Z" transform="translate(700.104 250.773)" fill="#203e7a"/>
    <rect id="Rectangle_3" data-name="Rectangle 3" width="7.542" height="61.371" transform="translate(869.601 265.957)" fill="#203e7a"/>
    <path id="Path_2" data-name="Path 2" d="M164.188,21.61a4.359,4.359,0,0,1,1.328-3.236,4.469,4.469,0,0,1,3.257-1.306,4.463,4.463,0,0,1,4.543,4.542,4.636,4.636,0,0,1-1.285,3.323,4.58,4.58,0,0,1-6.515-.023,4.573,4.573,0,0,1-1.328-3.3M165,33.567h7.542V75.61H165Z" transform="translate(722.514 251.717)" fill="#203e7a"/>
    <path id="Path_3" data-name="Path 3" d="M176.324,20.637h7.542V31.779h12.729v7.114H183.866v18q0,6.216,3.643,8.271,2.573,1.459,9.086,1.459v7.2h-2.485q-17.787,0-17.785-15.643Z" transform="translate(728.592 253.505)" fill="#203e7a"/>
    <path id="Path_4" data-name="Path 4" d="M217.6,28.061q7.8,0,7.8,5.185a8.444,8.444,0,0,1-2.485,5.444L201.7,62.9h23.871v7.2h-25.2q-7.456,0-7.456-5.615,0-2.357,3.086-5.871l20.528-23.443H194.586V28.061Z" transform="translate(736.901 257.223)" fill="#203e7a"/>
    <path id="Path_5" data-name="Path 5" d="M253.322,70.361V49.405a15.666,15.666,0,0,0-3.471-10.458,12.388,12.388,0,0,0-9.943-4.328,12.61,12.61,0,0,0-9.9,4.243,14.8,14.8,0,0,0-3.6,10.242,15.131,15.131,0,0,0,3.73,10.5,12.9,12.9,0,0,0,10.113,4.328,17.289,17.289,0,0,0,10.543-3.857v8.1a22.687,22.687,0,0,1-11.4,2.871,19.267,19.267,0,0,1-14.827-6.514,21.753,21.753,0,0,1-5.829-15.259,21.667,21.667,0,0,1,5.871-15.556q5.869-6.171,15.214-6.171a20.765,20.765,0,0,1,13.348,4.65,19.653,19.653,0,0,1,7.222,11.98,51.711,51.711,0,0,1,.515,8.528V70.361Z" transform="translate(749.834 256.966)" fill="#1c96f2"/>
    <path id="Path_6" data-name="Path 6" d="M252.718,21.61a4.359,4.359,0,0,1,1.328-3.236,4.469,4.469,0,0,1,3.257-1.306,4.463,4.463,0,0,1,4.543,4.542,4.636,4.636,0,0,1-1.285,3.323,4.312,4.312,0,0,1-3.258,1.349,4.356,4.356,0,0,1-3.257-1.372,4.573,4.573,0,0,1-1.328-3.3m.813,11.957h7.542V75.61h-7.542Z" transform="translate(766.853 251.717)" fill="#1c96f2"/>
    <path id="Path_7" data-name="Path 7" d="M72.62,49.858c-.03,0-.045.015-.075.015-.165-.06-.315-.12-.48-.18l.09-.135Z" transform="translate(676.375 267.99)" fill="#1c96f2"/>
    <path id="Path_8" data-name="Path 8" d="M92.618,45.545,82.682,73.415l.27.18-.09.135c.165.06.315.12.48.18a11.814,11.814,0,0,0-9.71,14.5A11.823,11.823,0,1,1,61.01,80.124,11.818,11.818,0,0,0,70.42,65.4,34.529,34.529,0,0,1,69.5,18.665,5.519,5.519,0,0,0,64.042,12.6a5.52,5.52,0,1,1,3.767-9.26A5.488,5.488,0,0,1,69.22,7.829a5.524,5.524,0,0,0,5.613,5.928A34.468,34.468,0,0,1,95.349,6.973L82.967,45.6Z" transform="translate(665.578 243.952)" fill="#1c96f2"/>
    <path id="Path_9" data-name="Path 9" d="M134.83,23.007a7.9,7.9,0,0,1-6.709.09,7.88,7.88,0,0,0-10.416,5.238l-.12-.255a34.572,34.572,0,0,1-45.07,42.594c.03,0,.045-.015.075-.015l-.465-.3,27-37.641H92.656L104.108,9.8a34.889,34.889,0,0,1,9.155,9.26,7.841,7.841,0,0,0,10.446-5.013,7.889,7.889,0,1,1,11.121,8.96" transform="translate(676.406 247.19)" fill="#1c96f2"/>
    <path id="Path_10" data-name="Path 10" d="M72.62,49.858c-.03,0-.045.015-.075.015-.165-.06-.315-.12-.48-.18l.09-.135Z" transform="translate(676.375 267.99)" fill="#1c96f2"/>
  </g>
</svg>
