<svg width="24" height="25" viewBox="0 0 24 25" fill="none" xmlns="http://www.w3.org/2000/svg">
<path d="M12 17.3628V19.6852C12 21.51 11.25 22.2418 9.37 22.2418H4.62C2.75 22.2418 2 21.51 2 19.6852V15.0501C2 13.2156 2.75 12.4837 4.62 12.4837H7V14.7964C7 16.6309 7.75 17.3628 9.62 17.3628H12Z" stroke="currentColor" stroke-width="1.2" stroke-linecap="round" stroke-linejoin="round"/>
<path d="M17 12.4838V14.7964C17 16.6309 16.25 17.3628 14.37 17.3628H9.62C7.75 17.3628 7 16.6309 7 14.7964V10.1613C7 8.33658 7.75 7.60472 9.62 7.60472H12V9.91738C12 11.7519 12.75 12.4838 14.62 12.4838H17Z" stroke="currentColor" stroke-width="1.2" stroke-linecap="round" stroke-linejoin="round"/>
<path d="M22 5.28231V9.91739C22 11.7519 21.25 12.4838 19.37 12.4838H14.62C12.75 12.4838 12 11.7519 12 9.91739V5.28231C12 3.45755 12.75 2.72569 14.62 2.72569H19.37C21.25 2.72569 22 3.45755 22 5.28231Z" stroke="currentColor" stroke-width="1.2" stroke-linecap="round" stroke-linejoin="round"/>
</svg>
