<svg width="24" height="25" viewBox="0 0 24 25" fill="none" xmlns="http://www.w3.org/2000/svg">
<path d="M15.59 12.6732C18.4232 12.6732 20.72 10.432 20.72 7.66728C20.72 4.90261 18.4232 2.66139 15.59 2.66139C12.7568 2.66139 10.46 4.90261 10.46 7.66728C10.46 10.432 12.7568 12.6732 15.59 12.6732Z" stroke="currentColor" stroke-width="1.2" stroke-miterlimit="10"/>
<path d="M6.35999 19.6795C8.06102 19.6795 9.44 18.3339 9.44 16.674C9.44 15.0141 8.06102 13.6685 6.35999 13.6685C4.65895 13.6685 3.28 15.0141 3.28 16.674C3.28 18.3339 4.65895 19.6795 6.35999 19.6795Z" stroke="currentColor" stroke-width="1.2" stroke-miterlimit="10"/>
<path d="M16.62 22.1775C18.0338 22.1775 19.18 21.0591 19.18 19.6795C19.18 18.2998 18.0338 17.1814 16.62 17.1814C15.2061 17.1814 14.06 18.2998 14.06 19.6795C14.06 21.0591 15.2061 22.1775 16.62 22.1775Z" stroke="currentColor" stroke-width="1.2" stroke-miterlimit="10"/>
</svg>
