<svg width="16" height="16" viewBox="0 0 16 16" fill="none" xmlns="http://www.w3.org/2000/svg">
<path d="M3.3335 5.33331C4.43807 5.33331 5.3335 4.43788 5.3335 3.33331C5.3335 2.22874 4.43807 1.33331 3.3335 1.33331C2.22893 1.33331 1.3335 2.22874 1.3335 3.33331C1.3335 4.43788 2.22893 5.33331 3.3335 5.33331Z" stroke="white" stroke-width="1.2" stroke-linecap="round" stroke-linejoin="round"/>
<path d="M12.6665 10C13.7711 10 14.6665 9.10457 14.6665 8C14.6665 6.89543 13.7711 6 12.6665 6C11.5619 6 10.6665 6.89543 10.6665 8C10.6665 9.10457 11.5619 10 12.6665 10Z" stroke="white" stroke-width="1.2" stroke-linecap="round" stroke-linejoin="round"/>
<path d="M3.3335 14.6667C4.43807 14.6667 5.3335 13.7713 5.3335 12.6667C5.3335 11.5621 4.43807 10.6667 3.3335 10.6667C2.22893 10.6667 1.3335 11.5621 1.3335 12.6667C1.3335 13.7713 2.22893 14.6667 3.3335 14.6667Z" stroke="white" stroke-width="1.2" stroke-linecap="round" stroke-linejoin="round"/>
<path d="M10.6668 7.99998H6.00016C4.5335 7.99998 3.3335 7.33331 3.3335 5.33331V10.6666" stroke="white" stroke-width="1.2" stroke-linecap="round" stroke-linejoin="round"/>
</svg>
