<svg width="24" height="24" viewBox="0 0 24 24" fill="none" xmlns="http://www.w3.org/2000/svg">
<path d="M20 13.7904C21.1046 13.7904 22 12.9166 22 11.8388C22 10.7609 21.1046 9.88715 20 9.88715C18.8954 9.88715 18 10.7609 18 11.8388C18 12.9166 18.8954 13.7904 20 13.7904Z" stroke="currentColor" stroke-width="1.5" stroke-linecap="round" stroke-linejoin="round"/>
<path d="M20 5.98391C21.1046 5.98391 22 5.11015 22 4.0323C22 2.95446 21.1046 2.08069 20 2.08069C18.8954 2.08069 18 2.95446 18 4.0323C18 5.11015 18.8954 5.98391 20 5.98391Z" stroke="currentColor" stroke-width="1.5" stroke-linecap="round" stroke-linejoin="round"/>
<path d="M20 21.5968C21.1046 21.5968 22 20.7231 22 19.6452C22 18.5674 21.1046 17.6936 20 17.6936C18.8954 17.6936 18 18.5674 18 19.6452C18 20.7231 18.8954 21.5968 20 21.5968Z" stroke="currentColor" stroke-width="1.5" stroke-linecap="round" stroke-linejoin="round"/>
<path d="M4 13.7904C5.10457 13.7904 6 12.9166 6 11.8388C6 10.7609 5.10457 9.88715 4 9.88715C2.89543 9.88715 2 10.7609 2 11.8388C2 12.9166 2.89543 13.7904 4 13.7904Z" stroke="currentColor" stroke-width="1.5" stroke-linecap="round" stroke-linejoin="round"/>
<path d="M6 11.8388H18" stroke="currentColor" stroke-width="1.5" stroke-linecap="round" stroke-linejoin="round"/>
<path d="M18 4.03232H14C12 4.03232 11 5.00812 11 6.95974V16.7178C11 18.6694 12 19.6452 14 19.6452H18" stroke="currentColor" stroke-width="1.5" stroke-linecap="round" stroke-linejoin="round"/>
</svg>
