<svg width="24" height="24" viewBox="0 0 24 24" fill="none" xmlns="http://www.w3.org/2000/svg">
<path d="M12 21.8871C17.5228 21.8871 22 17.5182 22 12.129C22 6.73976 17.5228 2.37093 12 2.37093C6.47715 2.37093 2 6.73976 2 12.129C2 17.5182 6.47715 21.8871 12 21.8871Z" stroke="currentColor" stroke-width="1.2" stroke-miterlimit="10" stroke-linecap="round" stroke-linejoin="round"/>
<path d="M12 14.9393C11.09 14.9393 10.35 14.2172 10.35 13.3292V10.919C10.35 10.031 11.09 9.3089 12 9.3089C12.91 9.3089 13.65 10.031 13.65 10.919V13.3292C13.65 14.2172 12.91 14.9393 12 14.9393Z" stroke="currentColor" stroke-width="1.2" stroke-linecap="round"/>
<path d="M16.98 13.5634C16.78 16.081 14.62 18.0521 12 18.0521C9.24 18.0521 7 15.8663 7 13.1731V11.0849C7 8.39165 9.24 6.20584 12 6.20584C14.59 6.20584 16.72 8.12817 16.97 10.5872" stroke="currentColor" stroke-width="1.2" stroke-linecap="round"/>
</svg>
