<svg width="24" height="24" viewBox="0 0 24 24" fill="none" xmlns="http://www.w3.org/2000/svg">
<path d="M21.5 5.70442C21.5 6.5924 21.07 7.38281 20.41 7.89023C19.93 8.26103 19.32 8.48547 18.65 8.48547C17.07 8.48547 15.8 7.24619 15.8 5.70442C15.8 5.05063 16.03 4.46514 16.41 3.987H16.42C16.93 3.34297 17.74 2.92337 18.65 2.92337C20.23 2.92337 21.5 4.16264 21.5 5.70442Z" stroke="currentColor" stroke-width="1.2" stroke-linecap="round" stroke-linejoin="round"/>
<path d="M8.2 5.70442C8.2 7.24619 6.93 8.48547 5.35 8.48547C4.68 8.48547 4.08 8.26103 3.59 7.89023C2.93 7.38281 2.5 6.5924 2.5 5.70442C2.5 4.16264 3.77 2.92337 5.35 2.92337C6.26 2.92337 7.07 3.34297 7.59 3.987C7.97 4.46514 8.2 5.05063 8.2 5.70442Z" stroke="currentColor" stroke-width="1.2" stroke-linecap="round" stroke-linejoin="round"/>
<path d="M21.5 18.6827C21.5 20.2244 20.23 21.4637 18.65 21.4637C17.74 21.4637 16.93 21.0441 16.42 20.4001H16.41C16.03 19.9317 15.8 19.3364 15.8 18.6827C15.8 17.1409 17.07 15.9016 18.65 15.9016C19.32 15.9016 19.92 16.126 20.41 16.4969V16.5066C21.07 17.0043 21.5 17.7947 21.5 18.6827Z" stroke="currentColor" stroke-width="1.2" stroke-linecap="round" stroke-linejoin="round"/>
<path d="M8.2 18.6827C8.2 19.3364 7.97 19.9219 7.59 20.4001C7.07 21.0539 6.26 21.4637 5.35 21.4637C3.77 21.4637 2.5 20.2244 2.5 18.6827C2.5 17.7947 2.93 17.0043 3.59 16.5066V16.4969C4.07 16.126 4.68 15.9016 5.35 15.9016C6.93 15.9016 8.2 17.1409 8.2 18.6827Z" stroke="currentColor" stroke-width="1.2" stroke-linecap="round" stroke-linejoin="round"/>
<path d="M21.5 12.1935C21.5 13.7548 21.11 15.2088 20.41 16.4968C19.93 16.126 19.32 15.9016 18.65 15.9016C17.07 15.9016 15.8 17.1409 15.8 18.6826C15.8 19.3364 16.03 19.9219 16.41 20.4001C15.09 21.0831 13.6 21.4637 12 21.4637C10.41 21.4637 8.91 21.0831 7.59 20.4001C7.97 19.9317 8.2 19.3364 8.2 18.6826C8.2 17.1409 6.93 15.9016 5.35 15.9016C4.68 15.9016 4.08 16.126 3.59 16.4968C2.89 15.2088 2.5 13.7548 2.5 12.1935C2.5 10.642 2.89 9.17829 3.59 7.89023C4.08 8.26103 4.68 8.48547 5.35 8.48547C6.93 8.48547 8.2 7.24619 8.2 5.70442C8.2 5.05063 7.97 4.46514 7.59 3.987C8.91 3.30393 10.41 2.92337 12 2.92337C13.6 2.92337 15.09 3.30393 16.41 3.987C16.03 4.45539 15.8 5.05063 15.8 5.70442C15.8 7.24619 17.07 8.48547 18.65 8.48547C19.32 8.48547 19.92 8.26103 20.41 7.89023C21.11 9.17829 21.5 10.642 21.5 12.1935Z" stroke="currentColor" stroke-width="1.2" stroke-linecap="round" stroke-linejoin="round"/>
</svg>
