<svg width="24" height="25" viewBox="0 0 24 25" fill="none" xmlns="http://www.w3.org/2000/svg">
<path d="M13.01 3.68797L18.91 6.24458C20.61 6.97644 20.61 8.18644 18.91 8.91829L13.01 11.4749C12.34 11.7676 11.24 11.7676 10.57 11.4749L4.67 8.91829C2.97 8.18644 2.97 6.97644 4.67 6.24458L10.57 3.68797C11.24 3.39523 12.34 3.39523 13.01 3.68797Z" stroke="#607DB9" stroke-width="1.2" stroke-linecap="round" stroke-linejoin="round"/>
<path d="M3 11.5725C3 12.3922 3.63 13.3387 4.4 13.6705L11.19 16.6174C11.71 16.8419 12.3 16.8419 12.81 16.6174L19.6 13.6705C20.37 13.3387 21 12.3922 21 11.5725" stroke="#607DB9" stroke-width="1.2" stroke-linecap="round" stroke-linejoin="round"/>
<path d="M3 16.4515C3 17.359 3.55 18.1787 4.4 18.5495L11.19 21.4965C11.71 21.7209 12.3 21.7209 12.81 21.4965L19.6 18.5495C20.45 18.1787 21 17.359 21 16.4515" stroke="#607DB9" stroke-width="1.2" stroke-linecap="round" stroke-linejoin="round"/>
</svg>
