<svg width="29" height="29" viewBox="0 0 29 29" fill="none" xmlns="http://www.w3.org/2000/svg">
<rect width="28.2162" height="29" fill="#203E7A"/>
<path d="M9.39557 20.2873C9.38717 20.2873 9.38343 20.2915 9.37503 20.2915C9.32836 20.2751 9.2887 20.2586 9.2439 20.2422L9.26863 20.2051L9.39557 20.2873Z" fill="#1C96F2"/>
<path d="M11.9091 12.4891L9.19488 20.1546L9.26862 20.2039L9.24388 20.2411C9.29055 20.2575 9.33022 20.2739 9.37502 20.2904C7.61238 20.5587 6.39948 22.2143 6.66596 23.9888C6.68042 24.0856 6.69909 24.1814 6.72243 24.2763C7.2451 25.9935 6.28608 27.8117 4.58084 28.3379C2.87514 28.8641 1.0691 27.8986 0.546418 26.1819C0.0237399 24.4652 0.982762 22.6465 2.688 22.1203C2.87934 22.0611 3.07534 22.0203 3.27415 21.9977C5.03165 21.6937 6.21141 20.0127 5.90947 18.2434C5.89267 18.1443 5.87121 18.0456 5.84507 17.9484C2.4556 14.3806 2.34686 8.79302 5.59493 5.09415C5.67707 4.25976 5.07226 3.5165 4.24344 3.43382C4.1963 3.42912 4.14917 3.42677 4.10157 3.4263C3.26995 3.46905 2.56106 2.82493 2.51906 1.98772C2.4766 1.1505 3.11641 0.436852 3.94803 0.394569C4.39464 0.371547 4.82818 0.549138 5.13152 0.87989C5.43766 1.21205 5.57907 1.66542 5.517 2.1141C5.4554 2.95084 6.07888 3.67953 6.9105 3.74202C6.95716 3.74531 7.00383 3.74671 7.0505 3.74577C8.6722 2.53553 10.6369 1.88201 12.6553 1.88107L9.27282 12.5055L11.9091 12.4891Z" fill="#1C96F2"/>
<path d="M26.3998 7.18296C25.823 7.46532 25.1515 7.47425 24.5672 7.20786C23.4574 6.77798 22.2119 7.33518 21.7848 8.45241C21.7601 8.51677 21.7386 8.58208 21.7204 8.64832L21.6878 8.57832C23.2227 13.5974 20.4254 18.9185 15.4399 20.4638C13.4542 21.0792 11.3224 21.0181 9.37496 20.2909C9.38336 20.2909 9.38709 20.2866 9.39549 20.2866L9.26855 20.2039L16.6449 9.85199H14.878L18.0048 3.54845C18.9899 4.23204 19.8383 5.09603 20.5061 6.09533C21.6028 6.54119 22.8517 6.00795 23.2945 4.90341C23.3193 4.84186 23.3407 4.77984 23.3599 4.71642C23.6418 3.55221 24.808 2.83903 25.9644 3.1228C27.1208 3.40657 27.8292 4.58064 27.5474 5.74485C27.3957 6.37158 26.9743 6.89778 26.3984 7.18061" fill="#1C96F2"/>
<path d="M9.39557 20.2873C9.38717 20.2873 9.38343 20.2915 9.37503 20.2915C9.32836 20.2751 9.2887 20.2586 9.2439 20.2422L9.26863 20.2051L9.39557 20.2873Z" fill="#1C96F2"/>
</svg>
