<svg width="116" height="42" viewBox="0 0 116 42" fill="none" xmlns="http://www.w3.org/2000/svg">
<rect width="116" height="42" fill="#203E7A"/>
<path d="M39.5786 10.6733H42.2229V24.8095C42.1711 26.1396 42.601 27.4439 43.4328 28.4791C44.2949 29.4945 45.5727 30.055 46.8987 29.998C48.2384 30.0574 49.5322 29.4981 50.4116 28.4791C51.2553 27.4379 51.6906 26.1222 51.6364 24.7795C51.6852 23.438 51.2077 22.1306 50.3068 21.1404C49.4012 20.1789 48.127 19.658 46.8118 19.7114C45.4602 19.7281 44.1544 20.2053 43.1071 21.0655V18.223C44.3205 17.5415 45.6912 17.1932 47.0809 17.2148C49.0487 17.1824 50.9344 18.0114 52.2491 19.486C53.6043 20.9192 54.345 22.8314 54.311 24.8095C54.3777 26.8283 53.6471 28.7914 52.2795 30.269C50.9058 31.743 48.9678 32.5486 46.9618 32.4797C45.2667 32.5 43.6174 31.9228 42.3003 30.848C40.9713 29.8026 40.0722 28.3005 39.7757 26.6293C39.6221 25.6444 39.5572 24.6476 39.5816 23.6514L39.5786 10.6733Z" fill="white"/>
<path d="M59.6555 10.6733H57.0267V32.2093H59.6555V10.6733Z" fill="white"/>
<path d="M62.9874 13.2591C62.9779 12.8323 63.1458 12.4205 63.4507 12.1238C63.7514 11.8217 64.1616 11.6563 64.5861 11.6659C65.4453 11.6503 66.1545 12.3384 66.1699 13.2034C66.1705 13.222 66.1705 13.2411 66.1699 13.2597C66.1807 13.6931 66.0199 14.1127 65.7222 14.4256C65.1006 15.055 64.0896 15.0574 63.465 14.4316C63.4602 14.4268 63.456 14.4226 63.4513 14.4178C63.1482 14.1103 62.9809 13.6931 62.988 13.2597M63.2715 17.4557H65.9002V32.2087H63.2715V17.4557Z" fill="white"/>
<path d="M69.3363 13.5451H71.9651V17.4552H76.4021V19.9518H71.9651V26.2679C71.9651 27.7221 72.3884 28.6895 73.2345 29.1703C73.8323 29.5113 74.888 29.6822 76.4015 29.6822V32.2087H75.5352C71.4018 32.2087 69.3351 30.3787 69.3357 26.7192L69.3363 13.5451Z" fill="white"/>
<path d="M86.6201 17.4554C88.4319 17.4554 89.3382 18.062 89.3388 19.2752C89.2911 19.9969 88.9833 20.6767 88.4724 21.1856L81.0774 29.6818H89.3977V32.209H80.6141C78.8815 32.209 78.0151 31.552 78.0151 30.2387C78.0151 29.6872 78.3736 29.0003 79.0905 28.1784L86.2462 19.952H78.5981V17.4554H86.6201Z" fill="white"/>
<path d="M103.58 32.2081V24.8544C103.631 23.5242 103.201 22.2199 102.37 21.1847C101.508 20.1693 100.23 19.6088 98.9041 19.6658C97.5894 19.6166 96.3224 20.1633 95.4507 21.1547C94.5945 22.1498 94.1461 23.4355 94.1955 24.7512C94.1473 26.1011 94.6123 27.4193 95.4953 28.4365C96.3861 29.4471 97.6787 30.004 99.0202 29.9554C100.362 29.9279 101.655 29.4501 102.696 28.5989V31.4414C101.483 32.1229 100.112 32.4706 98.7225 32.449C96.7499 32.4886 94.86 31.6524 93.5543 30.1634C92.2116 28.7122 91.4828 26.7917 91.5221 24.8088C91.456 22.7875 92.1926 20.8232 93.5686 19.3499C94.9481 17.8993 96.8779 17.111 98.8719 17.1841C100.565 17.1638 102.211 17.741 103.525 18.8158C104.848 19.8588 105.743 21.3549 106.042 23.0195C106.184 24.0104 106.243 25.0114 106.221 26.0118V32.2081H103.58Z" fill="#1C96F2"/>
<path d="M109.302 13.2591C109.292 12.8323 109.46 12.4205 109.765 12.1238C110.066 11.8217 110.476 11.6563 110.901 11.6659C111.76 11.6503 112.469 12.3384 112.484 13.2034C112.485 13.222 112.485 13.2411 112.484 13.2597C112.495 13.6931 112.334 14.1127 112.037 14.4256C111.742 14.7391 111.329 14.9117 110.901 14.8991C110.472 14.9081 110.06 14.7337 109.766 14.4196C109.463 14.1121 109.295 13.6949 109.302 13.2615M109.586 17.4575H112.215V32.2087H109.586V17.4575Z" fill="#1C96F2"/>
<path d="M14.9874 28.8824C14.9767 28.8824 14.9719 28.8878 14.9612 28.8878C14.9016 28.8668 14.851 28.8459 14.7939 28.8249L14.8254 28.7775L14.9874 28.8824Z" fill="#1C96F2"/>
<path d="M18.1943 18.9335L14.7313 28.7136L14.8254 28.7766L14.7939 28.8239C14.8534 28.8449 14.904 28.8659 14.9612 28.8869C12.7123 29.2291 11.1648 31.3415 11.5048 33.6055C11.5232 33.729 11.5471 33.8513 11.5768 33.9724C12.2437 36.1632 11.0201 38.483 8.84447 39.1544C6.66823 39.8257 4.36397 38.5939 3.6971 36.4036C3.03024 34.2133 4.25382 31.893 6.42947 31.2216C6.67359 31.1461 6.92366 31.0939 7.17731 31.0652C9.41964 30.6773 10.9249 28.5326 10.5396 26.2752C10.5182 26.1487 10.4908 26.0228 10.4575 25.8987C6.13295 21.3467 5.99422 14.2178 10.1383 9.49856C10.2431 8.43398 9.47145 7.4857 8.41399 7.3802C8.35385 7.37421 8.29371 7.37121 8.23298 7.37061C7.17195 7.42516 6.26751 6.60335 6.21393 5.53518C6.15974 4.46701 6.97606 3.55649 8.03709 3.50254C8.6069 3.47317 9.16004 3.69975 9.54706 4.12174C9.93766 4.54553 10.1181 5.12398 10.0389 5.69642C9.96028 6.76399 10.7558 7.6937 11.8168 7.77342C11.8763 7.77762 11.9359 7.77942 11.9954 7.77822C14.0645 6.23411 16.5712 5.40031 19.1464 5.39911L14.8308 18.9544L18.1943 18.9335Z" fill="#1C96F2"/>
<path d="M36.6825 12.1626C35.9466 12.5228 35.0898 12.5342 34.3443 12.1943C32.9284 11.6459 31.3393 12.3568 30.7945 13.7822C30.7629 13.8643 30.7355 13.9476 30.7123 14.0322L30.6706 13.9428C32.6289 20.3465 29.06 27.1355 22.6992 29.107C20.1657 29.8923 17.4458 29.8143 14.9612 28.8864C14.9719 28.8864 14.9766 28.881 14.9874 28.881L14.8254 28.7755L24.2366 15.5679H21.9823L25.9716 7.52542C27.2285 8.39758 28.311 9.49992 29.163 10.7749C30.5623 11.3437 32.1556 10.6634 32.7206 9.25416C32.7522 9.17563 32.7796 9.09651 32.804 9.01559C33.1636 7.53022 34.6516 6.6203 36.127 6.98235C37.6025 7.3444 38.5063 8.84235 38.1467 10.3277C37.9531 11.1274 37.4155 11.7987 36.6807 12.1596" fill="#1C96F2"/>
<path d="M14.9874 28.8824C14.9767 28.8824 14.9719 28.8878 14.9612 28.8878C14.9016 28.8668 14.851 28.8459 14.7939 28.8249L14.8254 28.7775L14.9874 28.8824Z" fill="#1C96F2"/>
</svg>
