<svg width="18" height="18" viewBox="0 0 18 18" fill="none" xmlns="http://www.w3.org/2000/svg">
<path d="M9.01501 2.1825C6.53251 2.1825 4.515 4.2 4.515 6.6825V8.85C4.515 9.3075 4.32 10.005 4.0875 10.395L3.225 11.8275C2.6925 12.7125 3.06 13.695 4.035 14.025C7.2675 15.105 10.755 15.105 13.9875 14.025C14.895 13.725 15.2925 12.6525 14.7975 11.8275L13.935 10.395C13.71 10.005 13.515 9.3075 13.515 8.85V6.6825C13.515 4.2075 11.49 2.1825 9.01501 2.1825Z" stroke="#767C87" stroke-width="1.2" stroke-miterlimit="10" stroke-linecap="round"/>
<path d="M10.4025 2.39999C10.17 2.33249 9.93 2.27999 9.6825 2.24999C8.9625 2.15999 8.2725 2.21249 7.6275 2.39999C7.845 1.84499 8.385 1.45499 9.015 1.45499C9.645 1.45499 10.185 1.84499 10.4025 2.39999Z" stroke="#767C87" stroke-width="1.5" stroke-miterlimit="10" stroke-linecap="round" stroke-linejoin="round"/>
<path d="M11.265 14.295C11.265 15.5325 10.2525 16.545 9.015 16.545C8.4 16.545 7.83 16.29 7.425 15.885C7.02 15.48 6.765 14.91 6.765 14.295" stroke="#767C87" stroke-width="1.2" stroke-miterlimit="10"/>
</svg>
