<?xml version="1.0"?>
<svg xmlns="http://www.w3.org/2000/svg" xmlnsXlink="http://www.w3.org/1999/xlink" xmlnsSvgjs="http://svgjs.com/svgjs" version="1.1" width="512" height="512" x="0" y="0" viewBox="0 0 512 512" style="enable-background:new 0 0 512 512" xml:space="preserve" class=""><g><g xmlns="http://www.w3.org/2000/svg" id="Layer_x0020_1"><path d="m470 345h-428c-23 0-42-19-42-42v-94c0-23 19-42 42-42h428c23 0 42 19 42 42v95c0 22-19 41-42 41zm-428-163c-15 0-27 12-27 27v95c0 15 12 27 27 27h428c15 0 27-12 27-27v-95c0-15-12-27-27-27z"  data-original="#336666" class=""/><g ><path d="m104 400c-4 0-7-3-7-8v-272c0-4 3-7 7-7 5 0 8 3 8 7v273c-1 4-3 7-8 7z"  data-original="#d50060" class=""/><path d="m131 127h-54c-4 0-8-3-8-7 0-5 4-8 8-8h54c5 0 8 3 8 8 0 4-3 7-8 7z"  data-original="#d50060" class=""/><path d="m131 400h-54c-4 0-8-3-8-8 0-4 4-7 8-7h54c5 0 8 3 8 7 0 5-3 8-8 8z"  data-original="#d50060" class=""/></g></g></g></svg>
